<?xml version="1.0"?><svg xmlns="http://www.w3.org/2000/svg" viewBox="0 0 30 30" width="30px" height="30px">
    <!-- Circular background -->
    <circle cx="15" cy="15" r="15" fill="#2f2f2f"/>
    <!-- LinkedIn icon (centered and scaled to fit nicely in the circle) -->
    <path fill="#FFFFFF" d="M10.954,22h-2.95v-9.492h2.95V22z M9.449,11.151c-0.951,0-1.72-0.771-1.72-1.72c0-0.949,0.77-1.719,1.72-1.719 c0.948,0,1.719,0.771,1.719,1.719C11.168,10.38,10.397,11.151,9.449,11.151z M22.004,22h-2.948v-4.616c0-1.101-0.02-2.517-1.533-2.517 c-1.535,0-1.771,1.199-1.771,2.437V22h-2.948v-9.492h2.83v1.297h0.04c0.394-0.746,1.356-1.533,2.791-1.533 c2.987,0,3.539,1.966,3.539,4.522V22z"/>
</svg>